<svg xmlns="http://www.w3.org/2000/svg" xmlns:xlink="http://www.w3.org/1999/xlink" viewBox="0,0,256,256" width="32px" height="32px" fill-rule="nonzero" fill="#ffffff"><g fill="#ffffff" fill-rule="nonzero" stroke="none" stroke-width="1" stroke-linecap="butt" stroke-linejoin="miter" stroke-miterlimit="10" stroke-dasharray="" stroke-dashoffset="0" font-family="none" font-weight="none" font-size="none" text-anchor="none" style="mix-blend-mode: normal"><g transform="scale(8,8)"><path d="M16.09375,4c-5.077,0 -10.09375,3.38333 -10.09375,8.86133c0,3.483 1.95848,5.46289 3.14648,5.46289c0.49,0 0.77344,-1.36595 0.77344,-1.75195c0,-0.46 -1.17383,-1.44047 -1.17383,-3.35547c0,-3.978 3.02827,-6.79688 6.94727,-6.79688c3.37,0 5.86328,1.91364 5.86328,5.43164c0,2.627 -1.05475,7.55469 -4.46875,7.55469c-1.232,0 -2.28516,-0.89002 -2.28516,-2.16602c0,-1.87 1.19727,-3.68133 1.19727,-5.61133c0,-3.276 -4.53711,-2.68166 -4.53711,1.27734c0,0.831 0.10361,1.75081 0.47461,2.50781c-0.682,2.939 -1.9375,7.62334 -1.9375,10.65234c0,0.935 0.13366,1.85502 0.22266,2.79102c0.168,0.188 0.0848,0.16822 0.3418,0.07422c2.494,-3.414 2.26263,-4.38747 3.39063,-8.85547c0.609,1.158 2.18269,1.78125 3.42969,1.78125c5.255,0 7.61523,-5.12128 7.61523,-9.73828c0,-4.913 -4.24525,-8.11914 -8.90625,-8.11914z"></path></g></g></svg>